<svg xmlns="http://www.w3.org/2000/svg" viewBox="0 0 774 569" fill="none">
  <path d="M 472.17,459.4 C 472.17,459.4 553.88,488.91 552.85,488.23 C 551.83,487.54 550.29,461.56 550.29,461.56 C 550.29,461.56 543.92,455.2 543.92,455.2 C 543.92,455.2 489.52,439.6 489.52,439.6 C 489.52,439.6 514.1,400.82 514.1,400.82 C 514.1,400.82 518.89,337.11 518.89,337.11 C 518.89,337.11 549.68,375.74 549.68,375.74 C 549.68,375.74 581.67,390.43 581.67,390.43 C 581.67,390.43 639.47,373.47 639.47,373.47 C 639.47,373.47 667.74,365.67 667.74,365.67 C 667.74,365.67 675.47,336.49 675.47,336.49 C 675.47,336.49 673.49,322.86 673.49,322.86 C 673.49,322.86 590,364.81 590,364.81 C 590,364.81 573.51,355.43 573.51,355.43 C 573.51,355.43 579.88,294.6 579.88,294.6 C 579.88,294.6 576.92,271.35 576.92,271.35 C 576.92,271.35 553.54,229.87 553.54,229.87 C 553.54,229.87 532.93,211.39 532.93,211.39 C 532.93,211.39 587.88,166.99 587.88,166.99 C 587.88,166.99 618.28,165.82 618.28,165.82 C 618.28,165.82 650.98,131.63 650.98,131.63 C 650.98,131.63 677.94,121.3 677.94,121.3 C 677.94,121.3 707.39,123.77 707.39,123.77 C 707.39,123.77 743.29,101.51 743.29,101.51 C 743.29,101.51 716.62,101.51 716.62,101.51 C 716.62,101.51 748.64,74.4 748.64,74.4 C 748.64,74.4 753.96,30.02 753.96,30.02 C 753.96,30.02 708.89,52.81 708.89,52.81 C 708.89,52.81 719.47,33.85 719.47,33.85 C 719.47,33.85 696.45,39.32 696.45,39.32 C 696.45,39.32 680.98,52.51 680.98,52.51 C 680.98,52.51 667.73,64.67 667.73,64.67 C 667.73,64.67 662.09,56.87 662.09,56.87 C 662.09,56.87 610.52,87.19 610.52,87.19 C 610.52,87.19 572,101.51 572,101.51 C 572,101.51 529.94,158.77 529.94,158.77 C 529.94,158.77 520.71,197.05 520.71,197.05 C 520.71,197.05 492.45,185.65 492.45,185.65 C 492.45,185.65 425.9,203.89 425.9,203.89 C 425.9,203.89 405.61,217.79 405.61,217.79 C 405.61,217.79 349.31,212.04 349.31,212.04 C 349.31,212.04 310.79,189.76 310.79,189.76 C 310.79,189.76 316.95,173.69 316.95,173.69 C 316.95,173.69 292.33,180.18 292.33,180.18 C 292.33,180.18 287.32,160.13 287.32,160.13 C 287.32,160.13 269.99,155.8 269.99,155.8 C 269.99,155.8 232.23,119.1 232.23,119.1 C 232.23,119.1 244.01,115.91 244.01,115.91 C 244.01,115.91 206.63,101.51 206.63,101.51 C 206.63,101.51 182.01,80.35 182.01,80.35 C 182.01,80.35 152.38,79.89 152.38,79.89 C 152.38,79.89 150.79,65.65 150.79,65.65 C 150.79,65.65 134.03,74.4 134.03,74.4 C 134.03,74.4 129.59,60.52 129.59,60.52 C 129.59,60.52 112.74,51.54 112.74,51.54 C 112.74,51.54 113.97,79.31 113.97,79.31 C 113.97,79.31 83.77,96.08 83.77,96.08 C 83.77,96.08 74.9,115.89 74.9,115.89 C 74.9,115.89 30.67,142.12 30.67,142.12 C 30.67,142.12 19.95,149.64 19.95,149.64 C 19.95,149.64 21.78,168.56 21.78,168.56 C 21.78,168.56 36.97,178.4 36.97,178.4 C 36.97,178.4 47.61,168.66 47.61,168.66 C 47.61,168.66 56.96,170.65 56.96,169.62 C 56.96,168.6 88.34,158.23 88.34,158.23 C 88.34,158.23 103.22,162.06 103.22,162.06 C 103.22,162.06 120.36,155.8 120.36,155.8 C 120.36,155.8 143.25,182.86 143.25,182.86 C 143.25,182.86 150.23,258.59 150.23,258.59 C 150.23,258.59 100.63,253.68 100.63,253.68 C 100.63,253.68 84.46,255.4 84.46,255.4 C 84.46,255.4 40.7,295.97 40.7,295.97 C 40.7,295.97 53,352.33 53,352.33 C 53,352.33 78.08,339.28 78.08,339.28 C 78.08,339.28 63.03,305.09 63.03,305.09 C 63.03,305.09 91.58,282.07 91.58,282.07 C 91.58,282.07 149.16,307.66 149.16,307.66 C 149.16,307.66 127.54,359.56 127.54,359.56 C 127.54,359.56 129.59,368.91 129.59,368.91 C 129.59,368.91 162.17,389.12 162.17,389.12 C 162.17,389.12 189.99,389.65 189.99,389.65 C 189.99,389.65 213.92,392.16 213.92,392.16 C 213.92,392.16 217.23,374.95 217.23,374.95 C 217.23,374.95 211.87,368.45 211.87,368.45 C 211.87,368.45 170.62,369.82 170.62,369.82 C 170.62,369.82 158.99,355.69 158.99,355.69 C 158.99,355.69 191.81,334.38 191.81,334.38 C 191.81,334.38 294.72,356.6 294.72,356.6 C 294.72,356.6 349.74,342.44 349.74,342.44 C 349.74,342.44 437.98,348.85 437.98,348.85 C 437.98,348.85 471.95,393.28 471.95,393.28 C 471.95,393.28 464.57,438.71 464.57,438.71 C 464.57,438.71 472.17,459.4 472.17,459.4 Z" stroke="#8db87c" stroke-width="4" stroke-linecap="round" stroke-linejoin="round" fill="none"/>
</svg>